<svg width="142" height="16" viewBox="0 0 142 16" fill="none" xmlns="http://www.w3.org/2000/svg">
<path d="M0 15.0201L0.02 14.7401L1.06 14.6001C1.15333 14.5867 1.23333 14.5001 1.3 14.3401L5.62 1.00007H6.94L11.54 14.6201L12.92 14.7001C12.92 14.7134 12.9133 14.8134 12.9 15.0001L8.9 15.0201C8.9 14.9001 8.90667 14.8067 8.92 14.7401L9.96 14.6001C10.0667 14.5867 10.12 14.5067 10.12 14.3601L9.02 11.1001H2.78L1.72 14.5801L4.04 14.7001C4.04 14.7134 4.03333 14.8134 4.02 15.0001L0 15.0201ZM5.76 1.38007L2.9 10.7001H8.88L5.76 1.38007Z" fill="black"/>
<path d="M17.707 1.00007C17.707 1.0134 17.7137 1.1134 17.727 1.30007L16.367 1.42007V8.98007C16.367 11.3001 16.7737 12.8401 17.587 13.6001C17.9737 13.9734 18.367 14.2334 18.767 14.3801C19.167 14.5134 19.6337 14.5801 20.167 14.5801C20.7137 14.5801 21.207 14.5067 21.647 14.3601C22.087 14.2134 22.5137 13.9467 22.927 13.5601C23.807 12.7601 24.247 11.2334 24.247 8.98007V1.74007C24.2204 1.56673 24.1404 1.4734 24.007 1.46007L22.567 1.32007C22.5537 1.24007 22.547 1.14007 22.547 1.02007L26.347 1.00007C26.347 1.0134 26.3537 1.1134 26.367 1.30007L24.707 1.48007V9.00007C24.707 13.0534 23.1937 15.0801 20.167 15.0801C19.4337 15.0801 18.787 15.0067 18.227 14.8601C17.6804 14.7001 17.147 14.4134 16.627 14.0001C15.547 13.1601 15.007 11.4934 15.007 9.00007V1.68007C14.9537 1.52007 14.8737 1.4334 14.767 1.42007L13.727 1.32007C13.7137 1.24007 13.707 1.14007 13.707 1.02007L17.707 1.00007Z" fill="black"/>
<path d="M28.197 1.30007L28.217 1.00007H33.077C34.4504 1.00007 35.5104 1.30007 36.257 1.90007C37.0037 2.50007 37.377 3.3934 37.377 4.58007C37.377 5.3534 37.077 6.16007 36.477 7.00007C35.8904 7.84007 35.337 8.38007 34.817 8.62007L38.517 14.6401L39.497 14.7001C39.497 14.7134 39.4904 14.8134 39.477 15.0001L37.297 15.0201L33.497 8.86007H30.837V14.6201L32.237 14.7001C32.237 14.7134 32.2304 14.8134 32.217 15.0001L28.197 15.0201L28.217 14.7401L29.257 14.6001C29.3504 14.5867 29.4237 14.5267 29.477 14.4201V1.62007C29.437 1.50007 29.3637 1.4334 29.257 1.42007L28.197 1.30007ZM32.977 1.30007H30.837V8.56007H34.257C34.9504 7.7734 35.417 7.08007 35.657 6.48007C35.897 5.86674 36.017 5.2734 36.017 4.70007C36.017 3.58007 35.757 2.7334 35.237 2.16007C34.717 1.58674 33.9637 1.30007 32.977 1.30007Z" fill="black"/>
<path d="M40.9938 15.0201L41.0138 14.7401L42.0538 14.6001C42.1471 14.5867 42.2271 14.5001 42.2938 14.3401L46.6138 1.00007H47.9338L52.5338 14.6201L53.9138 14.7001C53.9138 14.7134 53.9071 14.8134 53.8938 15.0001L49.8938 15.0201C49.8938 14.9001 49.9004 14.8067 49.9138 14.7401L50.9538 14.6001C51.0604 14.5867 51.1138 14.5067 51.1138 14.3601L50.0138 11.1001H43.7738L42.7138 14.5801L45.0338 14.7001C45.0338 14.7134 45.0271 14.8134 45.0138 15.0001L40.9938 15.0201ZM46.7538 1.38007L43.8938 10.7001H49.8738L46.7538 1.38007Z" fill="black"/>
<path d="M55.5016 15.0201L55.5216 14.7401L56.5616 14.6001C56.6949 14.5867 56.7749 14.5001 56.8016 14.3401H56.8216V1.70007H56.8016C56.7749 1.52674 56.6949 1.4334 56.5616 1.42007L55.5216 1.32007L55.5016 1.02007L59.5216 1.00007C59.5216 1.0134 59.5282 1.1134 59.5416 1.30007L58.1816 1.42007V14.6201L59.5416 14.7001C59.5416 14.7134 59.5349 14.8134 59.5216 15.0001L55.5016 15.0201Z" fill="black"/>
<path d="M61.8656 1.30007L61.8856 1.00007H64.6256L72.4056 14.4401L72.3056 1.70007C72.2523 1.56674 72.179 1.4934 72.0856 1.48007L70.2456 1.32007C70.2323 1.24007 70.2256 1.14007 70.2256 1.02007L74.0256 1.00007C74.0256 1.0134 74.0323 1.1134 74.0456 1.30007L72.7656 1.44007V15.0001H71.3056L63.5256 1.56007L63.6256 14.5801L65.9056 14.7001C65.9056 14.7134 65.899 14.8134 65.8856 15.0001L61.8656 15.0201L61.8856 14.7401L62.9256 14.6001C63.059 14.5867 63.139 14.5001 63.1656 14.3401V1.68007C63.139 1.52007 63.059 1.4334 62.9256 1.42007L61.8656 1.30007Z" fill="black"/>
<path d="M79.6455 1.40007H76.2055L75.8855 4.04007L75.5055 3.88007L75.7055 1.40007H75.6855L75.7255 1.24007L75.7455 1.00007L75.7855 1.02007V1.00007H84.8655L85.1255 3.88007L84.7255 4.04007L84.4055 1.40007H80.9055V14.6201L82.3655 14.7001C82.3655 14.7134 82.3588 14.8134 82.3455 15.0001L78.3455 15.0201C78.3455 14.9001 78.3521 14.8067 78.3655 14.7401L79.4055 14.6001C79.5388 14.5867 79.6188 14.5001 79.6455 14.3401V1.40007Z" fill="black"/>
<path d="M87.0598 1.30007L87.0798 1.00007H95.6398L95.6198 1.06007L95.8798 3.88007L95.4798 4.04007L95.1598 1.40007H89.7198V7.86007H94.4998C94.5665 7.8734 94.6265 7.86007 94.6798 7.82007C94.7332 7.76674 94.7598 7.70007 94.7598 7.62007L94.8398 6.24007L95.1598 6.20007V9.62007C95.1465 9.62007 95.0465 9.62674 94.8598 9.64007L94.7798 8.26007H89.7198V14.6001H95.6998L96.0798 11.4001L96.4598 11.5001L96.1598 15.0001H91.0798L87.0598 15.0201L87.0798 14.7401L88.1198 14.6001C88.2532 14.5867 88.3332 14.5001 88.3598 14.3401V1.68007C88.3332 1.52007 88.2532 1.4334 88.1198 1.42007L87.0598 1.30007Z" fill="black"/>
<path d="M98.5048 1.30007L98.5248 1.00007H103.385C104.758 1.00007 105.818 1.30007 106.565 1.90007C107.312 2.50007 107.685 3.3934 107.685 4.58007C107.685 5.3534 107.385 6.16007 106.785 7.00007C106.198 7.84007 105.645 8.38007 105.125 8.62007L108.825 14.6401L109.805 14.7001C109.805 14.7134 109.798 14.8134 109.785 15.0001L107.605 15.0201L103.805 8.86007H101.145V14.6201L102.545 14.7001C102.545 14.7134 102.538 14.8134 102.525 15.0001L98.5048 15.0201L98.5248 14.7401L99.5648 14.6001C99.6582 14.5867 99.7315 14.5267 99.7848 14.4201V1.62007C99.7448 1.50007 99.6715 1.4334 99.5648 1.42007L98.5048 1.30007ZM103.285 1.30007H101.145V8.56007H104.565C105.258 7.7734 105.725 7.08007 105.965 6.48007C106.205 5.86674 106.325 5.2734 106.325 4.70007C106.325 3.58007 106.065 2.7334 105.545 2.16007C105.025 1.58674 104.272 1.30007 103.285 1.30007Z" fill="black"/>
<path d="M111.806 15.0201L111.826 14.7401L112.866 14.6001C113 14.5867 113.08 14.5001 113.106 14.3401H113.126V1.70007H113.106C113.08 1.52674 113 1.4334 112.866 1.42007L111.826 1.32007L111.806 1.02007L115.826 1.00007C115.826 1.0134 115.833 1.1134 115.846 1.30007L114.486 1.42007V14.6201L115.846 14.7001C115.846 14.7134 115.84 14.8134 115.826 15.0001L111.806 15.0201Z" fill="black"/>
<path d="M118.227 8.04007C118.227 5.84007 118.787 4.08674 119.907 2.78007C121.04 1.4734 122.447 0.820068 124.127 0.820068C128.06 0.820068 130.027 3.22674 130.027 8.04007C130.027 10.2534 129.467 12.0001 128.347 13.2801C127.227 14.5467 125.82 15.1801 124.127 15.1801C120.193 15.1801 118.227 12.8001 118.227 8.04007ZM119.587 8.00007C119.587 12.5201 121.1 14.7801 124.127 14.7801C125.433 14.7801 126.513 14.1801 127.367 12.9801C128.233 11.7801 128.667 10.1201 128.667 8.00007C128.667 3.48007 127.153 1.22007 124.127 1.22007C122.833 1.22007 121.753 1.82674 120.887 3.04007C120.02 4.2534 119.587 5.90674 119.587 8.00007Z" fill="black"/>
<path d="M136.092 14.6201C137.079 14.6201 137.945 14.3334 138.692 13.7601C139.439 13.1734 139.812 12.2867 139.812 11.1001C139.812 10.5667 139.679 10.1134 139.412 9.74007C139.159 9.3534 138.819 9.06007 138.392 8.86007C137.965 8.64674 137.499 8.46674 136.992 8.32007C136.485 8.16007 135.979 7.9934 135.472 7.82007C134.965 7.64674 134.499 7.44007 134.072 7.20007C133.645 6.96007 133.299 6.62007 133.032 6.18007C132.779 5.74007 132.652 5.2134 132.652 4.60007C132.652 3.5334 133.019 2.66007 133.752 1.98007C134.485 1.30007 135.465 0.960069 136.692 0.960069C137.919 0.960069 139.092 1.10007 140.212 1.38007L140.432 3.88007L140.052 4.04007L139.852 2.46007C138.865 1.72674 137.939 1.36007 137.072 1.36007C136.205 1.36007 135.479 1.62674 134.892 2.16007C134.305 2.68007 134.012 3.46674 134.012 4.52007C134.012 5.1334 134.259 5.62007 134.752 5.98007C135.245 6.34007 135.839 6.62007 136.532 6.82007C137.239 7.02007 137.939 7.24674 138.632 7.50007C139.339 7.7534 139.939 8.18007 140.432 8.78007C140.925 9.38007 141.172 10.1601 141.172 11.1201C141.172 12.4134 140.712 13.3867 139.792 14.0401C138.872 14.6934 137.659 15.0201 136.152 15.0201C134.645 15.0201 133.339 14.6134 132.232 13.8001L132.252 11.6801L132.632 11.5801L132.672 12.7201C133.032 13.2267 133.525 13.6734 134.152 14.0601C134.779 14.4334 135.425 14.6201 136.092 14.6201Z" fill="black"/>
</svg>
