<svg width="26" height="20" viewBox="0 0 26 20" fill="none" xmlns="http://www.w3.org/2000/svg">
<path d="M25 0.25H1C0.801088 0.25 0.610322 0.329018 0.46967 0.46967C0.329018 0.610322 0.25 0.801088 0.25 1V18C0.25 18.4641 0.434375 18.9092 0.762563 19.2374C1.09075 19.5656 1.53587 19.75 2 19.75H24C24.4641 19.75 24.9092 19.5656 25.2374 19.2374C25.5656 18.9092 25.75 18.4641 25.75 18V1C25.75 0.801088 25.671 0.610322 25.5303 0.46967C25.3897 0.329018 25.1989 0.25 25 0.25ZM23.0725 1.75L13 10.9825L2.9275 1.75H23.0725ZM24 18.25H2C1.9337 18.25 1.87011 18.2237 1.82322 18.1768C1.77634 18.1299 1.75 18.0663 1.75 18V2.705L12.5 12.5525C12.6383 12.679 12.8189 12.7491 13.0063 12.7491C13.1936 12.7491 13.3742 12.679 13.5125 12.5525L24.25 2.705V18C24.25 18.0663 24.2237 18.1299 24.1768 18.1768C24.1299 18.2237 24.0663 18.25 24 18.25Z" fill="#5B6888"/>
</svg>
