<svg width="20" height="26" viewBox="0 0 20 26" fill="none" xmlns="http://www.w3.org/2000/svg">
<path fill-rule="evenodd" clip-rule="evenodd" d="M10.0003 25.2515L10.9618 24.168C12.0529 22.9185 13.0342 21.733 13.9073 20.6054L14.6281 19.6545C17.6376 15.5997 19.1431 12.3814 19.1431 10.0027C19.1431 4.92538 15.0502 0.80957 10.0003 0.80957C4.95037 0.80957 0.857422 4.92538 0.857422 10.0027C0.857422 12.3814 2.36295 15.5997 5.37247 19.6545L6.09323 20.6054C7.33885 22.2014 8.64206 23.7501 10.0003 25.2515Z" stroke="#5B6888" stroke-width="1.4" stroke-linecap="round" stroke-linejoin="round"/>
<path d="M9.99995 13.7619C12.1039 13.7619 13.8095 12.0563 13.8095 9.95235C13.8095 7.8484 12.1039 6.14282 9.99995 6.14282C7.89601 6.14282 6.19043 7.8484 6.19043 9.95235C6.19043 12.0563 7.89601 13.7619 9.99995 13.7619Z" stroke="#5B6888" stroke-width="1.4" stroke-linecap="round" stroke-linejoin="round"/>
</svg>
