<svg width="25" height="25" viewBox="0 0 25 25" fill="none" xmlns="http://www.w3.org/2000/svg">
<path d="M23.6988 17.0376L17.7938 14.3913C17.5262 14.2767 17.2343 14.2306 16.9444 14.2572C16.6546 14.2838 16.3759 14.3824 16.1338 14.5438C16.1092 14.5596 16.0858 14.5771 16.0638 14.5963L12.9775 17.2213C12.9455 17.2388 12.9098 17.2485 12.8734 17.2498C12.837 17.2512 12.8007 17.244 12.7675 17.2288C10.7838 16.2713 8.72876 14.2288 7.76751 12.2726C7.75151 12.2399 7.74319 12.204 7.74319 12.1676C7.74319 12.1312 7.75151 12.0953 7.76751 12.0626L10.4013 8.93757C10.4202 8.91445 10.4377 8.89024 10.4538 8.86507C10.613 8.62195 10.7092 8.343 10.7336 8.05341C10.7581 7.76381 10.71 7.47269 10.5938 7.20632L7.96627 1.31132C7.81705 0.963333 7.559 0.673125 7.23084 0.484253C6.90268 0.295381 6.52212 0.218035 6.14626 0.263822C4.5128 0.478567 3.01341 1.28074 1.92829 2.52045C0.843179 3.76015 0.24659 5.35255 0.250015 7.00007C0.250015 16.7876 8.21251 24.7501 18 24.7501C19.6475 24.7532 21.2397 24.1565 22.4794 23.0715C23.719 21.9864 24.5213 20.4872 24.7363 18.8538C24.782 18.4797 24.7057 18.1009 24.5187 17.7736C24.3318 17.4464 24.0442 17.1882 23.6988 17.0376ZM18 23.2501C9.04002 23.2501 1.75001 15.9601 1.75001 7.00007C1.74584 5.71748 2.20877 4.47725 3.05232 3.51108C3.89587 2.54492 5.06233 1.91893 6.33376 1.75007H6.36251C6.41289 1.75101 6.4618 1.76715 6.50284 1.79637C6.54389 1.82559 6.57514 1.86653 6.59251 1.91382L9.23001 7.80257C9.24506 7.83531 9.25284 7.87092 9.25284 7.90695C9.25284 7.94298 9.24506 7.97858 9.23001 8.01132L6.59127 11.1438C6.57158 11.1662 6.55361 11.19 6.53752 11.2151C6.3724 11.4671 6.27516 11.7576 6.25524 12.0583C6.23531 12.3589 6.29336 12.6597 6.42376 12.9313C7.53251 15.2013 9.82001 17.4713 12.115 18.5801C12.3883 18.7098 12.6905 18.7664 12.9921 18.7445C13.2938 18.7226 13.5846 18.6229 13.8363 18.4551C13.86 18.4388 13.8838 18.4213 13.9063 18.4026L16.9913 15.7776C17.0217 15.7612 17.0554 15.7516 17.0899 15.7494C17.1244 15.7473 17.159 15.7526 17.1913 15.7651L23.0975 18.4113C23.1458 18.4319 23.1863 18.4671 23.2135 18.5119C23.2406 18.5568 23.253 18.6091 23.2488 18.6613C23.0808 19.9333 22.4554 21.1007 21.4894 21.9452C20.5235 22.7897 19.2831 23.2535 18 23.2501Z" fill="#5B6888"/>
</svg>
