<svg width="22" height="26" viewBox="0 0 22 26" fill="none" xmlns="http://www.w3.org/2000/svg">
<path d="M22 11.0001C22 13.8213 21.0125 16.4001 19.2213 18.2638C17.5488 20.0001 15.2813 21.0001 13 21.0001C10.765 21.0001 9.2725 20.2676 8.32125 19.5001L6.97375 25.2288C6.92217 25.4483 6.79791 25.644 6.62115 25.784C6.44439 25.924 6.22549 26.0001 6 26.0001C5.92259 26 5.84544 25.9912 5.77 25.9738C5.64166 25.9444 5.5204 25.8899 5.41318 25.8134C5.30596 25.737 5.21489 25.6401 5.14521 25.5284C5.07552 25.4167 5.02859 25.2923 5.0071 25.1623C4.98562 25.0324 4.99 24.8995 5.02 24.7713L9.02 7.77133C9.08067 7.51308 9.24144 7.2895 9.46696 7.14979C9.69247 7.01007 9.96425 6.96566 10.2225 7.02633C10.4808 7.087 10.7043 7.24778 10.844 7.47329C10.9838 7.6988 11.0282 7.97058 10.9675 8.22883L8.855 17.2038C9.25 17.7501 10.4125 19.0001 13 19.0001C16.4413 19.0001 20 16.0076 20 11.0001C19.9995 9.61991 19.6815 8.25836 19.0707 7.02069C18.4599 5.78303 17.5727 4.70242 16.4776 3.86242C15.3825 3.02242 14.1088 2.44554 12.7552 2.17639C11.4015 1.90723 10.004 1.95301 8.67089 2.31018C7.33774 2.66736 6.10459 3.32636 5.0668 4.23623C4.02901 5.1461 3.21439 6.28246 2.68591 7.55744C2.15744 8.83243 1.92928 10.2119 2.01907 11.5891C2.10886 12.9664 2.5142 14.3045 3.20375 15.5001C3.32814 15.7291 3.35817 15.9977 3.28744 16.2486C3.21672 16.4995 3.05084 16.7128 2.82513 16.8432C2.59942 16.9736 2.33173 17.0107 2.07907 16.9466C1.82642 16.8825 1.60877 16.7223 1.4725 16.5001C0.62929 15.0388 0.133484 13.4032 0.0234311 11.7198C-0.0866221 10.0363 0.192026 8.35005 0.837825 6.79148C1.48362 5.2329 2.47927 3.84376 3.74775 2.73148C5.01623 1.6192 6.52356 0.813593 8.15315 0.376971C9.78274 -0.059651 11.4909 -0.11559 13.1456 0.21348C14.8003 0.542551 16.3571 1.24781 17.6956 2.27472C19.0341 3.30162 20.1185 4.62265 20.8649 6.13564C21.6113 7.64862 21.9997 9.31301 22 11.0001Z" fill="#5B6888"/>
</svg>
