<svg width="40" height="40" fill="none" xmlns="http://www.w3.org/2000/svg"><path d="M6.16 10.794a.63.63 0 0 0-.383.399c-.061.152-.11.365-.11.474 0 .108.049.321.11.473a.632.632 0 0 0 .383.4c.264.119.759.124 13.822.125 15.24.002 13.98.045 14.224-.492a1.142 1.142 0 0 0 0-1.013c-.244-.537 1.016-.494-14.224-.492-13.063.002-13.558.006-13.822.126m0 8.333a.632.632 0 0 0-.383.4 1.58 1.58 0 0 0-.11.473c0 .109.049.321.11.473a.632.632 0 0 0 .383.4c.264.12.759.124 13.822.126 15.24.001 13.98.045 14.224-.493a1.14 1.14 0 0 0 0-1.012c-.244-.538 1.016-.494-14.224-.493-13.063.002-13.558.006-13.822.126m0 8.333a.632.632 0 0 0-.383.4c-.061.152-.11.365-.11.473 0 .109.049.322.11.474a.63.63 0 0 0 .383.399c.264.12.759.124 13.822.126 15.24.002 13.98.045 14.224-.492a1.142 1.142 0 0 0 0-1.013c-.244-.537 1.016-.494-14.224-.492-13.063.001-13.558.006-13.822.125" fill-rule="evenodd" fill="#000"/></svg>