<svg width="24" height="24" fill="none" xmlns="http://www.w3.org/2000/svg"><path d="M4.99 4.257c-.344.123-.724.559-.773.889-.06.398-.178.264 3.257 3.704L10.619 12l-3.145 3.15c-3.435 3.44-3.317 3.306-3.257 3.704.034.228.224.513.472.709.312.247.61.289.93.13.066-.033 1.529-1.467 3.251-3.187L12 13.38l3.13 3.126c1.722 1.72 3.193 3.159 3.27 3.198.085.044.23.072.367.073.201.002.255-.017.46-.158.139-.096.296-.253.392-.392.141-.205.16-.259.158-.46a.896.896 0 0 0-.073-.367c-.039-.077-1.478-1.548-3.198-3.27L13.38 12l3.126-3.13c1.72-1.722 3.154-3.185 3.187-3.251.157-.317.119-.599-.123-.916-.194-.254-.483-.451-.713-.485-.401-.061-.263-.182-3.707 3.257L12 10.62 8.87 7.491C5.626 4.25 5.572 4.2 5.26 4.203a1 1 0 0 0-.27.054" fill-rule="evenodd" fill="#000"/></svg>