<svg width="20" height="26" fill="none" xmlns="http://www.w3.org/2000/svg"><path d="M9.033.167a9.833 9.833 0 0 0-7.817 5.416C.684 6.66.412 7.552.245 8.767.165 9.347.165 10.48.244 11c.464 3.044 2.666 6.894 6.786 11.867 1.086 1.31 2.464 2.876 2.642 3.004a.624.624 0 0 0 .61.022c.14-.082.657-.644 1.617-1.76C16.728 18.521 19.253 14.3 19.756 11c.079-.52.079-1.653-.001-2.233-.167-1.215-.439-2.107-.971-3.184a9.77 9.77 0 0 0-4.43-4.432 9.644 9.644 0 0 0-3.002-.939C10.958.152 9.464.123 9.033.167m1.717 1.367a8.478 8.478 0 0 1 7.582 7.04c.311 1.828.005 3.408-1.096 5.65-1.243 2.53-3.509 5.715-6.552 9.206l-.609.7-.074.087-.092-.106c-3.643-4.165-5.881-7.273-7.193-9.989-1.063-2.201-1.355-3.744-1.049-5.544.744-4.366 4.722-7.451 9.083-7.044M9.433 5.487c-.655.119-.974.217-1.421.436-1.014.498-1.856 1.431-2.228 2.471-.681 1.905-.062 3.976 1.546 5.169.511.378.984.6 1.631.762.325.082.412.09 1.006.091.505 0 .713-.013.933-.06a4.498 4.498 0 0 0 3.464-3.331c.248-.972.119-2.161-.333-3.065a4.587 4.587 0 0 0-3.098-2.41c-.242-.054-1.304-.099-1.5-.063m1.317 1.441c.337.094.505.159.747.293a3.129 3.129 0 0 1 1.392 3.895 3.191 3.191 0 0 1-2.046 1.84c-.267.082-.341.089-.843.089s-.576-.007-.843-.089a3.233 3.233 0 0 1-1.755-1.285 3.124 3.124 0 0 1-.28-2.902 3.096 3.096 0 0 1 2.162-1.846c.362-.085.375-.086.816-.072.275.008.496.034.65.077" fill-rule="evenodd" fill="#000"/></svg>