<svg xmlns="http://www.w3.org/2000/svg" aria-hidden="true" style="position:absolute;width:0;height:0;overflow:hidden">
  <defs>
    <symbol id="icon-burger" viewBox="0 0 32 32">
      <path d="M4.928 8.635a.506.506 0 0 0-.305.316l-.001.004c-.049.122-.088.292-.088.379s.039.257.088.378c.049.149.16.265.303.319l.003.001c.211.095.607.099 11.058.1 12.192.002 11.184.036 11.379-.394a.91.91 0 0 0-.002-.815l.002.005c-.195-.43.813-.395-11.379-.394-10.45.002-10.846.005-11.058.101zm0 6.667a.506.506 0 0 0-.305.316l-.001.004c-.046.111-.077.24-.088.374V16c0 .087.039.257.088.378.049.149.16.265.303.319l.003.001c.211.096.607.099 11.058.101 12.192.001 11.184.036 11.379-.394a.907.907 0 0 0-.002-.815l.002.005c-.195-.43.813-.395-11.379-.394-10.45.002-10.846.005-11.058.101zm0 6.666a.506.506 0 0 0-.305.316l-.001.004c-.049.122-.088.292-.088.378s.039.258.088.379a.507.507 0 0 0 .303.318l.003.001c.211.096.607.099 11.058.101 12.192.002 11.184.036 11.379-.394a.91.91 0 0 0-.002-.815l.002.005c-.195-.43.813-.395-11.379-.394-10.45.001-10.846.005-11.058.1z"/>
    </symbol>
    <symbol id="icon-close" viewBox="0 0 32 32">
      <path d="M6.653 5.676c-.459.164-.965.745-1.031 1.185-.08.531-.237.352 4.343 4.939l4.193 4.2-4.193 4.2c-4.58 4.587-4.423 4.408-4.343 4.939.045.304.299.684.629.945.416.329.813.385 1.24.173.088-.044 2.039-1.956 4.335-4.249l4.173-4.168 4.173 4.168c2.296 2.293 4.257 4.212 4.36 4.264.113.059.307.096.489.097.268.003.34-.023.613-.211.185-.128.395-.337.523-.523.188-.273.213-.345.211-.613v-.017c0-.171-.036-.333-.1-.48l.003.008c-.052-.103-1.971-2.064-4.264-4.36L17.839 16l4.168-4.173c2.293-2.296 4.205-4.247 4.249-4.335.209-.423.159-.799-.164-1.221-.259-.339-.644-.601-.951-.647-.535-.081-.351-.243-4.943 4.343l-4.2 4.193-4.173-4.172C7.5 5.667 7.428 5.6 7.012 5.604a1.337 1.337 0 0 0-.369.075l.009-.003z"/>
    </symbol>
    <symbol id="icon-map-tack" viewBox="0 0 25 32">
      <path d="M11.118.206a12.13 12.13 0 0 0-9.589 6.596l-.032.069C.842 8.197.507 9.294.302 10.79c-.098.714-.098 2.108-.001 2.748.571 3.746 3.281 8.485 8.352 14.606 1.337 1.612 3.033 3.54 3.252 3.697a.765.765 0 0 0 .755.025l-.004.002c.172-.101.809-.793 1.99-2.166 5.943-6.907 9.051-12.102 9.67-16.164.097-.64.097-2.034-.001-2.748-.206-1.495-.54-2.593-1.195-3.919-1.192-2.378-3.075-4.262-5.383-5.423l-.069-.032A11.59 11.59 0 0 0 14.037.268L13.973.26c-.485-.074-2.324-.11-2.854-.055zm2.113 1.682c4.74.45 8.53 4.013 9.323 8.603l.009.062c.383 2.25.006 4.194-1.349 6.954-1.53 3.114-4.319 7.034-8.064 11.33l-.75.862-.091.107-.113-.13c-4.484-5.126-7.238-8.951-8.853-12.294-1.308-2.709-1.668-4.608-1.291-6.823.916-5.374 5.812-9.17 11.179-8.67zM11.61 6.753c-.806.146-1.199.267-1.749.537-1.248.613-2.284 1.761-2.742 3.041-.838 2.345-.076 4.894 1.903 6.362.629.465 1.211.738 2.007.938.4.101.507.111 1.238.112.622 0 .878-.016 1.148-.074a5.554 5.554 0 0 0 4.255-4.061l.008-.038c.305-1.196.146-2.66-.41-3.772a5.671 5.671 0 0 0-3.775-2.959l-.038-.007c-.298-.066-1.605-.122-1.846-.078zm1.621 1.774c.415.116.622.196.919.361a3.857 3.857 0 0 1 1.704 4.82l.009-.026a3.945 3.945 0 0 1-2.49 2.257l-.028.007c-.329.101-.42.11-1.038.11s-.709-.009-1.038-.11a4.003 4.003 0 0 1-2.151-1.568l-.009-.014a3.81 3.81 0 0 1-.632-2.112c0-.526.106-1.028.297-1.485l-.009.025A3.828 3.828 0 0 1 11.4 8.525l.026-.005c.446-.105.462-.106 1.004-.089.338.01.61.042.8.095z"/>
    </symbol>
    <symbol id="icon-behance" viewBox="0 0 50 32">
      <path d="M30.222 5.333A1.776 1.776 0 0 1 32 3.555h14.222A1.776 1.776 0 0 1 48 5.333a1.776 1.776 0 0 1-1.778 1.778H32a1.776 1.776 0 0 1-1.778-1.778zm-5.333 17.334a9.333 9.333 0 0 1-9.334 9.334H1.777a1.781 1.781 0 0 1-1.778-1.778V1.779A1.781 1.781 0 0 1 1.777.001h12.889a8.444 8.444 0 0 1 5.7 14.667 9.336 9.336 0 0 1 4.522 8zM3.556 13.333h11.111a4.888 4.888 0 1 0 0-9.778H3.556v9.778zm17.777 9.334c0-.759-.149-1.51-.44-2.211s-.716-1.338-1.252-1.875a5.777 5.777 0 0 0-4.085-1.692h-12v11.556h12a5.765 5.765 0 0 0 4.085-1.692 5.776 5.776 0 0 0 1.692-4.086zm28.445-1.334A1.776 1.776 0 0 1 48 23.111H32.222a7.114 7.114 0 0 0 9.431 4.863 7.11 7.11 0 0 0 3.144-2.375 1.775 1.775 0 0 1 1.865-.655 1.786 1.786 0 0 1 1.089.817 1.774 1.774 0 0 1-.108 1.973 10.666 10.666 0 1 1 2.136-6.402zM46 19.556a7.113 7.113 0 0 0-13.778 0H46z"/>
    </symbol>
    <symbol id="icon-facebook" viewBox="0 0 32 32">
      <path d="M16 0A15.998 15.998 0 0 0 4.687 27.313a15.993 15.993 0 0 0 17.436 3.468 16.002 16.002 0 0 0 9.878-14.782 16.019 16.019 0 0 0-16-16zm1.231 29.482v-9.789h3.692a1.228 1.228 0 0 0 .87-2.1 1.228 1.228 0 0 0-.87-.36h-3.692v-3.692a2.461 2.461 0 0 1 2.462-2.462h2.462a1.228 1.228 0 0 0 .87-2.1 1.228 1.228 0 0 0-.87-.36h-2.462a4.923 4.923 0 0 0-4.923 4.923v3.692h-3.692a1.228 1.228 0 0 0-.87 2.1c.23.231.544.36.87.36h3.692v9.789a13.539 13.539 0 1 1 2.463 0z"/>
    </symbol>
    <symbol id="icon-instagram" viewBox="0 0 32 32">
      <path d="M16 8.615a7.382 7.382 0 0 0-6.823 4.559 7.384 7.384 0 1 0 6.824-4.558zm0 12.308a4.92 4.92 0 0 1-4.828-5.883 4.918 4.918 0 0 1 6.712-3.588A4.92 4.92 0 0 1 20.923 16 4.923 4.923 0 0 1 16 20.923zM23.385 0H8.616A8.623 8.623 0 0 0 .001 8.615v14.769a8.623 8.623 0 0 0 8.615 8.615h14.769A8.623 8.623 0 0 0 32 23.384V8.615A8.623 8.623 0 0 0 23.385 0zm6.153 23.385a6.153 6.153 0 0 1-6.153 6.153H8.616a6.153 6.153 0 0 1-6.153-6.153V8.616a6.153 6.153 0 0 1 6.153-6.153h14.769a6.153 6.153 0 0 1 6.153 6.153v14.769zM25.846 8a1.847 1.847 0 1 1-3.695 0 1.847 1.847 0 0 1 3.695 0z"/>
    </symbol>
    <symbol id="icon-linkedin" viewBox="0 0 32 32">
      <path d="M29.538 0H2.461A2.461 2.461 0 0 0-.001 2.462v27.077a2.461 2.461 0 0 0 2.462 2.462h27.077A2.461 2.461 0 0 0 32 29.539V2.462A2.461 2.461 0 0 0 29.538 0zm0 29.538H2.461V2.461h27.077v27.077zm-18.461-16v9.846a1.228 1.228 0 0 1-2.1.87 1.228 1.228 0 0 1-.36-.87v-9.846a1.234 1.234 0 0 1 1.23-1.231 1.23 1.23 0 0 1 1.23 1.231zm13.538 4.308v5.538a1.228 1.228 0 0 1-2.1.87 1.228 1.228 0 0 1-.36-.87v-5.538a3.078 3.078 0 1 0-6.154 0v5.538a1.23 1.23 0 0 1-2.462 0v-9.846a1.23 1.23 0 0 1 2.429-.274 5.54 5.54 0 0 1 8.648 4.581zM11.692 9.231a1.847 1.847 0 1 1-3.695 0 1.847 1.847 0 0 1 3.695 0z"/>
    </symbol>
    <symbol id="icon-logo" viewBox="0 0 284 32">
      <path d="m0 30.04.04-.56 2.08-.28c.187-.027.347-.2.48-.52L11.24 2h2.64l9.2 27.24 2.76.16c0 .027-.013.227-.04.6l-8 .04c0-.24.013-.427.04-.56l2.08-.28c.213-.027.32-.187.32-.48l-2.2-6.52H5.56l-2.12 6.96 4.64.24c0 .027-.013.227-.04.6L0 30.04zM11.52 2.76 5.8 21.4h11.96L11.52 2.76zM35.414 2c0 .027.013.227.04.6l-2.72.24v15.12c0 4.64.813 7.72 2.44 9.24.773.747 1.56 1.267 2.36 1.56.8.267 1.733.4 2.8.4 1.093 0 2.08-.147 2.96-.44s1.733-.827 2.56-1.6c1.76-1.6 2.64-4.653 2.64-9.16V3.48c-.053-.347-.213-.533-.48-.56l-2.88-.28c-.027-.16-.04-.36-.04-.6l7.6-.04c0 .027.013.227.04.6l-3.32.36V18c0 8.107-3.027 12.16-9.08 12.16-1.467 0-2.76-.147-3.88-.44-1.093-.32-2.16-.893-3.2-1.72-2.16-1.68-3.24-5.013-3.24-10V3.36c-.107-.32-.267-.493-.48-.52l-2.08-.2c-.027-.16-.04-.36-.04-.6l8-.04zM56.394 2.6l.04-.6h9.72c2.747 0 4.867.6 6.36 1.8s2.24 2.987 2.24 5.36c0 1.547-.6 3.16-1.8 4.84-1.173 1.68-2.28 2.76-3.32 3.24l7.4 12.04 1.96.12c0 .027-.013.227-.04.6l-4.36.04-7.6-12.32h-5.32v11.52l2.8.16c0 .027-.013.227-.04.6l-8.04.04.04-.56 2.08-.28c.187-.027.333-.147.44-.36V3.24c-.08-.24-.227-.373-.44-.4l-2.12-.24zm9.56 0h-4.28v14.52h6.84c1.387-1.573 2.32-2.96 2.8-4.16.48-1.227.72-2.413.72-3.56 0-2.24-.52-3.933-1.56-5.08s-2.547-1.72-4.52-1.72zM81.988 30.04l.04-.56 2.08-.28c.187-.027.347-.2.48-.52L93.228 2h2.64l9.2 27.24 2.76.16c0 .027-.013.227-.04.6l-8 .04c0-.24.013-.427.04-.56l2.08-.28c.213-.027.32-.187.32-.48l-2.2-6.52h-12.48l-2.12 6.96 4.64.24c0 .027-.013.227-.04.6l-8.04.04zm11.52-27.28-5.72 18.64h11.96l-6.24-18.64zM111.003 30.04l.04-.56 2.08-.28c.267-.027.427-.2.48-.52h.04V3.4h-.04c-.053-.347-.213-.533-.48-.56l-2.08-.2-.04-.6 8.04-.04c0 .027.013.227.04.6l-2.72.24v26.4l2.72.16c0 .027-.013.227-.04.6l-8.04.04zM123.731 2.6l.04-.6h5.48l15.56 26.88-.2-25.48c-.107-.267-.253-.413-.44-.44l-3.68-.32c-.027-.16-.04-.36-.04-.6l7.6-.04c0 .027.013.227.04.6l-2.56.28V30h-2.92l-15.56-26.88.2 26.04 4.56.24c0 .027-.013.227-.04.6l-8.04.04.04-.56 2.08-.28c.267-.027.427-.2.48-.52V3.36c-.053-.32-.213-.493-.48-.52l-2.12-.24zM159.291 2.8h-6.88l-.64 5.28-.76-.32.4-4.96h-.04l.08-.32.04-.48.08.04V2h18.16l.52 5.76-.8.32-.64-5.28h-7v26.44l2.92.16c0 .027-.013.227-.04.6l-8 .04c0-.24.013-.427.04-.56l2.08-.28c.267-.027.427-.2.48-.52V2.8zM174.12 2.6l.04-.6h17.12l-.04.12.52 5.64-.8.32-.64-5.28h-10.88v12.92H189c.133.027.253 0 .36-.08a.542.542 0 0 0 .16-.4l.16-2.76.64-.08v6.84c-.027 0-.227.013-.6.04l-.16-2.76h-10.12V29.2h11.96l.76-6.4.76.2-.6 7h-10.16l-8.04.04.04-.56 2.08-.28c.267-.027.427-.2.48-.52V3.36c-.053-.32-.213-.493-.48-.52l-2.12-.24zM197.01 2.6l.04-.6h9.72c2.746 0 4.866.6 6.36 1.8s2.24 2.987 2.24 5.36c0 1.547-.6 3.16-1.8 4.84-1.174 1.68-2.28 2.76-3.32 3.24l7.4 12.04 1.96.12c0 .027-.014.227-.04.6l-4.36.04-7.6-12.32h-5.32v11.52l2.8.16c0 .027-.014.227-.04.6l-8.04.04.04-.56 2.08-.28c.187-.027.333-.147.44-.36V3.24c-.08-.24-.227-.373-.44-.4l-2.12-.24zm9.56 0h-4.28v14.52h6.84c1.386-1.573 2.32-2.96 2.8-4.16.48-1.227.72-2.413.72-3.56 0-2.24-.52-3.933-1.56-5.08s-2.546-1.72-4.52-1.72zM223.612 30.04l.04-.56 2.08-.28c.268-.027.428-.2.48-.52h.04V3.4h-.04c-.052-.347-.212-.533-.48-.56l-2.08-.2-.04-.6 8.04-.04c0 .027.014.227.04.6l-2.72.24v26.4l2.72.16c0 .027-.012.227-.04.6l-8.04.04zM236.454 16.08c0-4.4 1.12-7.907 3.36-10.52 2.266-2.613 5.08-3.92 8.44-3.92 7.866 0 11.8 4.813 11.8 14.44 0 4.427-1.12 7.92-3.36 10.48-2.24 2.533-5.054 3.8-8.44 3.8-7.868 0-11.8-4.76-11.8-14.28zm2.72-.08c0 9.04 3.026 13.56 9.08 13.56 2.612 0 4.772-1.2 6.48-3.6 1.732-2.4 2.6-5.72 2.6-9.96 0-9.04-3.028-13.56-9.08-13.56-2.588 0-4.748 1.213-6.48 3.64-1.734 2.427-2.6 5.733-2.6 9.92zM272.184 29.24c1.974 0 3.706-.573 5.2-1.72 1.494-1.173 2.24-2.947 2.24-5.32 0-1.067-.266-1.973-.8-2.72a4.842 4.842 0 0 0-2.04-1.76 16.465 16.465 0 0 0-2.8-1.08c-1.014-.32-2.026-.653-3.04-1s-1.946-.76-2.8-1.24c-.854-.48-1.546-1.16-2.08-2.04-.506-.88-.76-1.933-.76-3.16 0-2.133.734-3.88 2.2-5.24s3.426-2.04 5.88-2.04c2.454 0 4.8.28 7.04.84l.44 5-.76.32-.4-3.16c-1.974-1.467-3.826-2.2-5.56-2.2s-3.186.533-4.36 1.6c-1.174 1.04-1.76 2.613-1.76 4.72 0 1.227.494 2.2 1.48 2.92s2.174 1.28 3.56 1.68c1.414.4 2.814.853 4.2 1.36 1.414.507 2.614 1.36 3.6 2.56s1.48 2.76 1.48 4.68c0 2.587-.92 4.533-2.76 5.84s-4.266 1.96-7.28 1.96-5.626-.813-7.84-2.44l.04-4.24.76-.2.08 2.28c.72 1.013 1.706 1.907 2.96 2.68 1.254.747 2.546 1.12 3.88 1.12z"/>
    </symbol>
    <symbol id="icon-mail" viewBox="0 0 42 32">
      <path d="M40 .4H1.6A1.201 1.201 0 0 0 .4 1.6v27.2a2.8 2.8 0 0 0 2.8 2.8h35.2a2.8 2.8 0 0 0 2.8-2.8V1.6A1.198 1.198 0 0 0 40 .4zm-3.084 2.4L20.8 17.572 4.684 2.8h32.232zM38.4 29.2H3.2a.4.4 0 0 1-.4-.4V4.328L20 20.084a1.201 1.201 0 0 0 1.62 0L38.8 4.328V28.8a.4.4 0 0 1-.4.4z"/>
    </symbol>
    <symbol id="icon-phone" viewBox="0 0 32 32">
      <path d="m30.334 21.808-7.558-3.387a2.239 2.239 0 0 0-2.125.195.84.84 0 0 0-.09.067l-3.95 3.36a.297.297 0 0 1-.269.009c-2.539-1.226-5.17-3.84-6.4-6.344a.31.31 0 0 1 0-.268l3.371-4a2.233 2.233 0 0 0 .246-2.216l-3.363-7.546A2.243 2.243 0 0 0 7.867.337 8.682 8.682 0 0 0 .32 8.959c0 12.528 10.192 22.72 22.72 22.72a8.681 8.681 0 0 0 8.623-7.548 2.24 2.24 0 0 0-1.328-2.325zM23.04 29.76c-11.469 0-20.8-9.331-20.8-20.8a6.758 6.758 0 0 1 5.867-6.72h.037a.322.322 0 0 1 .295.209l3.376 7.538a.326.326 0 0 1 0 .268l-3.378 4.01a.87.87 0 0 0-.069.091 2.238 2.238 0 0 0-.145 2.196c1.419 2.906 4.347 5.811 7.285 7.23a2.242 2.242 0 0 0 2.294-.227l3.949-3.36a.31.31 0 0 1 .256-.016l7.56 3.387a.32.32 0 0 1 .193.32 6.76 6.76 0 0 1-6.718 5.873z"/>
    </symbol>
    <symbol id="icon-pinterest" viewBox="0 0 27 32">
      <path d="M27.077 13.539c0 3.472-1.215 6.646-3.42 8.94-2.058 2.137-4.849 3.368-7.657 3.368-2.751 0-4.588-.902-5.758-1.846l-1.658 7.051a1.234 1.234 0 0 1-1.481.917 1.226 1.226 0 0 1-.939-.999 1.237 1.237 0 0 1 .016-.481l4.923-20.923a1.234 1.234 0 0 1 1.48-.917 1.234 1.234 0 0 1 .917 1.48l-2.6 11.046c.486.672 1.917 2.211 5.102 2.211 4.235 0 8.615-3.683 8.615-9.846A11.08 11.08 0 0 0 15.7 2.68 11.076 11.076 0 0 0 2.486 14.266a11.07 11.07 0 0 0 1.458 4.814 1.23 1.23 0 0 1-2.131 1.23 13.533 13.533 0 0 1-.781-11.949A13.536 13.536 0 0 1 21.78 2.802a13.529 13.529 0 0 1 5.298 10.739z"/>
    </symbol>
  </defs>
</svg>
